<svg xmlns="http://www.w3.org/2000/svg" xmlns:xlink="http://www.w3.org/1999/xlink" width="1599.999" height="566.26" viewBox="0 0 1599.999 566.26">
  <defs>
    <linearGradient id="linear-gradient" x1="1.119" y1="0.577" x2="0.5" y2="0.577" gradientUnits="objectBoundingBox">
      <stop offset="0" stop-color="#6156f9"/>
      <stop offset="1" stop-color="#1a129f"/>
    </linearGradient>
  </defs>
  <path id="Soustraction_1" data-name="Soustraction 1" d="M3371,583H1771V219.9c25.238-25.511,52.156-52.5,79.363-77.336,14.084-12.859,27.116-24.123,39.839-34.436,14.066-11.4,27.358-21.323,40.634-30.332a433.829,433.829,0,0,1,41.947-25.267c7.194-3.77,14.471-7.28,21.627-10.433,7.35-3.238,14.8-6.2,22.15-8.806,7.529-2.669,15.179-5.044,22.737-7.058,7.729-2.06,15.6-3.806,23.388-5.19,7.954-1.413,16.064-2.49,24.1-3.2,8.2-.726,16.572-1.094,24.886-1.094,7.858,0,15.889.329,23.871.977,8.109.659,16.4,1.667,24.652,3a367.931,367.931,0,0,1,51.857,12.432,476.016,476.016,0,0,1,55.606,21.663,644.865,644.865,0,0,1,59.774,31.666c17.027,10.141,34.311,19.755,51.374,28.575,16.575,8.568,33.416,16.632,50.054,23.968,16.128,7.111,32.532,13.744,48.757,19.714,15.689,5.773,31.665,11.094,47.484,15.815,13.7-8.742,26.272-16.113,38.437-22.532a345.749,345.749,0,0,1,38.714-17.677c6.582-2.5,13.175-4.729,19.6-6.619,6.639-1.954,13.309-3.611,19.826-4.925,6.716-1.354,13.482-2.388,20.11-3.072a199.952,199.952,0,0,1,20.449-1.06c6.418,0,12.916.321,19.311.954,6.532.647,13.157,1.639,19.692,2.948,6.662,1.335,13.429,3.041,20.115,5.07,6.808,2.066,13.733,4.529,20.583,7.319,6.965,2.837,14.062,6.1,21.095,9.7,7.142,3.652,14.427,7.757,21.65,12.2a416.015,416.015,0,0,1,45.14,32.419c5.669,4.639,11.436,9.2,17.14,13.569,24.342-2.018,48.533-4.509,69.3-6.686l9.135-.96,1.1-.116c51-5.37,99.174-10.441,144.639-10.441,28.519,0,53.676,2,76.909,6.1a315.891,315.891,0,0,1,36.583,8.686A281.174,281.174,0,0,1,3240.04,212.8a276.087,276.087,0,0,1,34.286,18.787,299.384,299.384,0,0,1,33.219,24.895,354.466,354.466,0,0,1,32.207,31.709A448.909,448.909,0,0,1,3371,327.422V583Z" transform="translate(-1771.001 -16.741)" fill="url(#linear-gradient)"/>
</svg>
